<?xml version="1.0" encoding="UTF-8" standalone="no"?>
<!DOCTYPE svg PUBLIC "-//W3C//DTD SVG 1.1//EN"
 "http://www.w3.org/Graphics/SVG/1.1/DTD/svg11.dtd">
<!-- Generated by graphviz version 2.43.0 (0)
 -->
<!-- Title: include/mcpp/block.h Pages: 1 -->
<svg width="166pt" height="137pt"
 viewBox="0.00 0.00 165.50 137.00" xmlns="http://www.w3.org/2000/svg" xmlns:xlink="http://www.w3.org/1999/xlink">
<g id="graph0" class="graph" transform="scale(1 1) rotate(0) translate(4 133)">
<title>include/mcpp/block.h</title>
<!-- Node1 -->
<g id="Node000001" class="node">
<title>Node1</title>
<g id="a_Node000001"><a xlink:title="BlockType class.">
<polygon fill="#999999" stroke="#666666" points="120.5,-129 0.5,-129 0.5,-110 120.5,-110 120.5,-129"/>
<text text-anchor="middle" x="60.5" y="-117" font-family="Helvetica,sans-Serif" font-size="10.00">include/mcpp/block.h</text>
</a>
</g>
</g>
<!-- Node2 -->
<g id="Node000002" class="node">
<title>Node2</title>
<g id="a_Node000002"><a xlink:href="mcpp_8h.html" target="_top" xlink:title="MinecraftConnection class.">
<polygon fill="white" stroke="#666666" points="121,-19 0,-19 0,0 121,0 121,-19"/>
<text text-anchor="middle" x="60.5" y="-7" font-family="Helvetica,sans-Serif" font-size="10.00">include/mcpp/mcpp.h</text>
</a>
</g>
</g>
<!-- Node1&#45;&gt;Node2 -->
<g id="edge1_Node000001_Node000002" class="edge">
<title>Node1&#45;&gt;Node2</title>
<g id="a_edge1_Node000001_Node000002"><a xlink:title=" ">
<path fill="none" stroke="#63b8ff" d="M49.57,-101.09C45.21,-93.15 40.7,-83.43 38.5,-74 33.83,-54 45.98,-31.49 54.03,-19.37"/>
<polygon fill="#63b8ff" stroke="#63b8ff" points="46.58,-102.91 54.66,-109.76 52.62,-99.36 46.58,-102.91"/>
</a>
</g>
</g>
<!-- Node3 -->
<g id="Node000003" class="node">
<title>Node3</title>
<g id="a_Node000003"><a xlink:href="util_8h.html" target="_top" xlink:title="Coordinate class.">
<polygon fill="white" stroke="#666666" points="157.5,-74 47.5,-74 47.5,-55 157.5,-55 157.5,-74"/>
<text text-anchor="middle" x="102.5" y="-62" font-family="Helvetica,sans-Serif" font-size="10.00">include/mcpp/util.h</text>
</a>
</g>
</g>
<!-- Node1&#45;&gt;Node3 -->
<g id="edge2_Node000001_Node000003" class="edge">
<title>Node1&#45;&gt;Node3</title>
<g id="a_edge2_Node000001_Node000003"><a xlink:title=" ">
<path fill="none" stroke="#63b8ff" d="M73.83,-101.67C81.11,-92.5 89.8,-81.52 95.69,-74.09"/>
<polygon fill="#63b8ff" stroke="#63b8ff" points="70.9,-99.74 67.44,-109.75 76.39,-104.08 70.9,-99.74"/>
</a>
</g>
</g>
<!-- Node3&#45;&gt;Node2 -->
<g id="edge3_Node000003_Node000002" class="edge">
<title>Node3&#45;&gt;Node2</title>
<g id="a_edge3_Node000003_Node000002"><a xlink:title=" ">
<path fill="none" stroke="#63b8ff" d="M89.17,-46.67C81.89,-37.5 73.2,-26.52 67.31,-19.09"/>
<polygon fill="#63b8ff" stroke="#63b8ff" points="86.61,-49.08 95.56,-54.75 92.1,-44.74 86.61,-49.08"/>
</a>
</g>
</g>
</g>
</svg>
