<?xml version="1.0" encoding="UTF-8" standalone="no"?>
<!DOCTYPE svg PUBLIC "-//W3C//DTD SVG 1.1//EN"
 "http://www.w3.org/Graphics/SVG/1.1/DTD/svg11.dtd">
<!-- Generated by graphviz version 2.43.0 (0)
 -->
<!-- Title: include/mcpp/mcpp.h Pages: 1 -->
<svg width="624pt" height="192pt"
 viewBox="0.00 0.00 623.50 192.00" xmlns="http://www.w3.org/2000/svg" xmlns:xlink="http://www.w3.org/1999/xlink">
<g id="graph0" class="graph" transform="scale(1 1) rotate(0) translate(4 188)">
<title>include/mcpp/mcpp.h</title>
<!-- Node1 -->
<g id="Node000001" class="node">
<title>Node1</title>
<g id="a_Node000001"><a xlink:title="MinecraftConnection class.">
<polygon fill="#999999" stroke="#666666" points="473.5,-184 352.5,-184 352.5,-165 473.5,-165 473.5,-184"/>
<text text-anchor="middle" x="413" y="-172" font-family="Helvetica,sans-Serif" font-size="10.00">include/mcpp/mcpp.h</text>
</a>
</g>
</g>
<!-- Node2 -->
<g id="Node000002" class="node">
<title>Node2</title>
<g id="a_Node000002"><a xlink:href="block_8h.html" target="_top" xlink:title="BlockType class.">
<polygon fill="white" stroke="#666666" points="334,-74 282,-74 282,-55 334,-55 334,-74"/>
<text text-anchor="middle" x="308" y="-62" font-family="Helvetica,sans-Serif" font-size="10.00">block.h</text>
</a>
</g>
</g>
<!-- Node1&#45;&gt;Node2 -->
<g id="edge1_Node000001_Node000002" class="edge">
<title>Node1&#45;&gt;Node2</title>
<g id="a_edge1_Node000001_Node000002"><a xlink:title=" ">
<path fill="none" stroke="#63b8ff" d="M401.51,-164.87C390.4,-156.29 373.34,-142.51 360,-129 345.36,-114.17 330.47,-95.56 320.4,-82.33"/>
<polygon fill="#63b8ff" stroke="#63b8ff" points="323.06,-80.04 314.26,-74.14 317.46,-84.24 323.06,-80.04"/>
</a>
</g>
</g>
<!-- Node4 -->
<g id="Node000004" class="node">
<title>Node4</title>
<g id="a_Node000004"><a xlink:href="connection_8h.html" target="_top" xlink:title="SocketConnection class.">
<polygon fill="white" stroke="#666666" points="199.5,-129 120.5,-129 120.5,-110 199.5,-110 199.5,-129"/>
<text text-anchor="middle" x="160" y="-117" font-family="Helvetica,sans-Serif" font-size="10.00">connection.h</text>
</a>
</g>
</g>
<!-- Node1&#45;&gt;Node4 -->
<g id="edge3_Node000001_Node000004" class="edge">
<title>Node1&#45;&gt;Node4</title>
<g id="a_edge3_Node000001_Node000004"><a xlink:title=" ">
<path fill="none" stroke="#63b8ff" d="M372.35,-164.98C328.11,-155.72 257.33,-140.89 209.78,-130.93"/>
<polygon fill="#63b8ff" stroke="#63b8ff" points="210.22,-127.44 199.71,-128.82 208.78,-134.3 210.22,-127.44"/>
</a>
</g>
</g>
<!-- Node9 -->
<g id="Node000009" class="node">
<title>Node9</title>
<g id="a_Node000009"><a xlink:href="util_8h.html" target="_top" xlink:title="Coordinate class.">
<polygon fill="white" stroke="#666666" points="409.5,-129 368.5,-129 368.5,-110 409.5,-110 409.5,-129"/>
<text text-anchor="middle" x="389" y="-117" font-family="Helvetica,sans-Serif" font-size="10.00">util.h</text>
</a>
</g>
</g>
<!-- Node1&#45;&gt;Node9 -->
<g id="edge8_Node000001_Node000009" class="edge">
<title>Node1&#45;&gt;Node9</title>
<g id="a_edge8_Node000001_Node000009"><a xlink:title=" ">
<path fill="none" stroke="#63b8ff" d="M409.04,-164.75C405.79,-157.57 401.08,-147.18 397.05,-138.27"/>
<polygon fill="#63b8ff" stroke="#63b8ff" points="400.2,-136.75 392.89,-129.09 393.83,-139.64 400.2,-136.75"/>
</a>
</g>
</g>
<!-- Node12 -->
<g id="Node000012" class="node">
<title>Node12</title>
<g id="a_Node000012"><a xlink:title=" ">
<polygon fill="#e0e0e0" stroke="#999999" points="579.5,-74 532.5,-74 532.5,-55 579.5,-55 579.5,-74"/>
<text text-anchor="middle" x="556" y="-62" font-family="Helvetica,sans-Serif" font-size="10.00">vector</text>
</a>
</g>
</g>
<!-- Node1&#45;&gt;Node12 -->
<g id="edge16_Node000001_Node000012" class="edge">
<title>Node1&#45;&gt;Node12</title>
<g id="a_edge16_Node000001_Node000012"><a xlink:title=" ">
<path fill="none" stroke="#63b8ff" d="M417.2,-164.56C423.91,-151.12 438.23,-125.61 457,-110 476.3,-93.95 502.32,-82.56 522.84,-75.32"/>
<polygon fill="#63b8ff" stroke="#63b8ff" points="524.06,-78.6 532.42,-72.09 521.82,-71.97 524.06,-78.6"/>
</a>
</g>
</g>
<!-- Node13 -->
<g id="Node000013" class="node">
<title>Node13</title>
<g id="a_Node000013"><a xlink:title=" ">
<polygon fill="#e0e0e0" stroke="#999999" points="524,-129 466,-129 466,-110 524,-110 524,-129"/>
<text text-anchor="middle" x="495" y="-117" font-family="Helvetica,sans-Serif" font-size="10.00">memory</text>
</a>
</g>
</g>
<!-- Node1&#45;&gt;Node13 -->
<g id="edge14_Node000001_Node000013" class="edge">
<title>Node1&#45;&gt;Node13</title>
<g id="a_edge14_Node000001_Node000013"><a xlink:title=" ">
<path fill="none" stroke="#63b8ff" d="M426.17,-164.98C438.77,-156.84 458,-144.41 472.94,-134.76"/>
<polygon fill="#63b8ff" stroke="#63b8ff" points="475.09,-137.54 481.59,-129.17 471.29,-131.66 475.09,-137.54"/>
</a>
</g>
</g>
<!-- Node14 -->
<g id="Node000014" class="node">
<title>Node14</title>
<g id="a_Node000014"><a xlink:title=" ">
<polygon fill="#e0e0e0" stroke="#999999" points="615.5,-129 542.5,-129 542.5,-110 615.5,-110 615.5,-129"/>
<text text-anchor="middle" x="579" y="-117" font-family="Helvetica,sans-Serif" font-size="10.00">string_view</text>
</a>
</g>
</g>
<!-- Node1&#45;&gt;Node14 -->
<g id="edge15_Node000001_Node000014" class="edge">
<title>Node1&#45;&gt;Node14</title>
<g id="a_edge15_Node000001_Node000014"><a xlink:title=" ">
<path fill="none" stroke="#63b8ff" d="M439.67,-164.98C467.54,-156.09 511.45,-142.07 542.52,-132.15"/>
<polygon fill="#63b8ff" stroke="#63b8ff" points="543.66,-135.46 552.12,-129.08 541.53,-128.79 543.66,-135.46"/>
</a>
</g>
</g>
<!-- Node3 -->
<g id="Node000003" class="node">
<title>Node3</title>
<g id="a_Node000003"><a xlink:title=" ">
<polygon fill="#e0e0e0" stroke="#999999" points="363.5,-19 306.5,-19 306.5,0 363.5,0 363.5,-19"/>
<text text-anchor="middle" x="335" y="-7" font-family="Helvetica,sans-Serif" font-size="10.00">ostream</text>
</a>
</g>
</g>
<!-- Node2&#45;&gt;Node3 -->
<g id="edge2_Node000002_Node000003" class="edge">
<title>Node2&#45;&gt;Node3</title>
<g id="a_edge2_Node000002_Node000003"><a xlink:title=" ">
<path fill="none" stroke="#63b8ff" d="M312.46,-54.75C316.12,-47.57 321.41,-37.18 325.95,-28.27"/>
<polygon fill="#63b8ff" stroke="#63b8ff" points="329.2,-29.59 330.62,-19.09 322.97,-26.41 329.2,-29.59"/>
</a>
</g>
</g>
<!-- Node5 -->
<g id="Node000005" class="node">
<title>Node5</title>
<g id="a_Node000005"><a xlink:title=" ">
<polygon fill="#e0e0e0" stroke="#999999" points="112,-74 62,-74 62,-55 112,-55 112,-74"/>
<text text-anchor="middle" x="87" y="-62" font-family="Helvetica,sans-Serif" font-size="10.00">cstdint</text>
</a>
</g>
</g>
<!-- Node4&#45;&gt;Node5 -->
<g id="edge4_Node000004_Node000005" class="edge">
<title>Node4&#45;&gt;Node5</title>
<g id="a_edge4_Node000004_Node000005"><a xlink:title=" ">
<path fill="none" stroke="#63b8ff" d="M148.27,-109.98C137.27,-102 120.58,-89.88 107.4,-80.31"/>
<polygon fill="#63b8ff" stroke="#63b8ff" points="109.09,-77.21 98.94,-74.17 104.98,-82.88 109.09,-77.21"/>
</a>
</g>
</g>
<!-- Node6 -->
<g id="Node000006" class="node">
<title>Node6</title>
<g id="a_Node000006"><a xlink:title=" ">
<polygon fill="#e0e0e0" stroke="#999999" points="190,-74 130,-74 130,-55 190,-55 190,-74"/>
<text text-anchor="middle" x="160" y="-62" font-family="Helvetica,sans-Serif" font-size="10.00">iostream</text>
</a>
</g>
</g>
<!-- Node4&#45;&gt;Node6 -->
<g id="edge5_Node000004_Node000006" class="edge">
<title>Node4&#45;&gt;Node6</title>
<g id="a_edge5_Node000004_Node000006"><a xlink:title=" ">
<path fill="none" stroke="#63b8ff" d="M160,-109.75C160,-102.8 160,-92.85 160,-84.13"/>
<polygon fill="#63b8ff" stroke="#63b8ff" points="163.5,-84.09 160,-74.09 156.5,-84.09 163.5,-84.09"/>
</a>
</g>
</g>
<!-- Node7 -->
<g id="Node000007" class="node">
<title>Node7</title>
<g id="a_Node000007"><a xlink:title=" ">
<polygon fill="#e0e0e0" stroke="#999999" points="264,-74 208,-74 208,-55 264,-55 264,-74"/>
<text text-anchor="middle" x="236" y="-62" font-family="Helvetica,sans-Serif" font-size="10.00">sstream</text>
</a>
</g>
</g>
<!-- Node4&#45;&gt;Node7 -->
<g id="edge6_Node000004_Node000007" class="edge">
<title>Node4&#45;&gt;Node7</title>
<g id="a_edge6_Node000004_Node000007"><a xlink:title=" ">
<path fill="none" stroke="#63b8ff" d="M172.21,-109.98C183.78,-101.92 201.38,-89.65 215.16,-80.03"/>
<polygon fill="#63b8ff" stroke="#63b8ff" points="217.37,-82.76 223.57,-74.17 213.36,-77.02 217.37,-82.76"/>
</a>
</g>
</g>
<!-- Node8 -->
<g id="Node000008" class="node">
<title>Node8</title>
<g id="a_Node000008"><a xlink:title=" ">
<polygon fill="#e0e0e0" stroke="#999999" points="44,-74 0,-74 0,-55 44,-55 44,-74"/>
<text text-anchor="middle" x="22" y="-62" font-family="Helvetica,sans-Serif" font-size="10.00">string</text>
</a>
</g>
</g>
<!-- Node4&#45;&gt;Node8 -->
<g id="edge7_Node000004_Node000008" class="edge">
<title>Node4&#45;&gt;Node8</title>
<g id="a_edge7_Node000004_Node000008"><a xlink:title=" ">
<path fill="none" stroke="#63b8ff" d="M137.83,-109.98C115.09,-101.25 79.52,-87.59 53.79,-77.71"/>
<polygon fill="#63b8ff" stroke="#63b8ff" points="54.71,-74.31 44.12,-73.99 52.2,-80.85 54.71,-74.31"/>
</a>
</g>
</g>
<!-- Node9&#45;&gt;Node2 -->
<g id="edge9_Node000009_Node000002" class="edge">
<title>Node9&#45;&gt;Node2</title>
<g id="a_edge9_Node000009_Node000002"><a xlink:title=" ">
<path fill="none" stroke="#63b8ff" d="M375.99,-109.98C363.54,-101.84 344.54,-89.41 329.79,-79.76"/>
<polygon fill="#63b8ff" stroke="#63b8ff" points="331.54,-76.72 321.25,-74.17 327.7,-82.57 331.54,-76.72"/>
</a>
</g>
</g>
<!-- Node9&#45;&gt;Node3 -->
<g id="edge12_Node000009_Node000003" class="edge">
<title>Node9&#45;&gt;Node3</title>
<g id="a_edge12_Node000009_Node000003"><a xlink:title=" ">
<path fill="none" stroke="#63b8ff" d="M384.58,-109.66C375.72,-91.93 355.61,-51.73 343.91,-28.32"/>
<polygon fill="#63b8ff" stroke="#63b8ff" points="346.93,-26.54 339.33,-19.16 340.67,-29.67 346.93,-26.54"/>
</a>
</g>
</g>
<!-- Node10 -->
<g id="Node000010" class="node">
<title>Node10</title>
<g id="a_Node000010"><a xlink:title=" ">
<polygon fill="#e0e0e0" stroke="#999999" points="443.5,-74 390.5,-74 390.5,-55 443.5,-55 443.5,-74"/>
<text text-anchor="middle" x="417" y="-62" font-family="Helvetica,sans-Serif" font-size="10.00">cstddef</text>
</a>
</g>
</g>
<!-- Node9&#45;&gt;Node10 -->
<g id="edge10_Node000009_Node000010" class="edge">
<title>Node9&#45;&gt;Node10</title>
<g id="a_edge10_Node000009_Node000010"><a xlink:title=" ">
<path fill="none" stroke="#63b8ff" d="M393.62,-109.75C397.46,-102.49 403.02,-91.95 407.76,-82.98"/>
<polygon fill="#63b8ff" stroke="#63b8ff" points="410.89,-84.57 412.46,-74.09 404.7,-81.3 410.89,-84.57"/>
</a>
</g>
</g>
<!-- Node11 -->
<g id="Node000011" class="node">
<title>Node11</title>
<g id="a_Node000011"><a xlink:title=" ">
<polygon fill="#e0e0e0" stroke="#999999" points="514.5,-74 461.5,-74 461.5,-55 514.5,-55 514.5,-74"/>
<text text-anchor="middle" x="488" y="-62" font-family="Helvetica,sans-Serif" font-size="10.00">iterator</text>
</a>
</g>
</g>
<!-- Node9&#45;&gt;Node11 -->
<g id="edge11_Node000009_Node000011" class="edge">
<title>Node9&#45;&gt;Node11</title>
<g id="a_edge11_Node000009_Node000011"><a xlink:title=" ">
<path fill="none" stroke="#63b8ff" d="M404.91,-109.98C420.55,-101.61 444.66,-88.7 462.88,-78.95"/>
<polygon fill="#63b8ff" stroke="#63b8ff" points="464.64,-81.98 471.8,-74.17 461.34,-75.8 464.64,-81.98"/>
</a>
</g>
</g>
<!-- Node9&#45;&gt;Node12 -->
<g id="edge13_Node000009_Node000012" class="edge">
<title>Node9&#45;&gt;Node12</title>
<g id="a_edge13_Node000009_Node000012"><a xlink:title=" ">
<path fill="none" stroke="#63b8ff" d="M409.81,-111.89C438.02,-102.94 488.73,-86.85 522.37,-76.17"/>
<polygon fill="#63b8ff" stroke="#63b8ff" points="523.75,-79.41 532.23,-73.05 521.64,-72.73 523.75,-79.41"/>
</a>
</g>
</g>
</g>
</svg>
