<?xml version="1.0" encoding="UTF-8" standalone="no"?>
<!DOCTYPE svg PUBLIC "-//W3C//DTD SVG 1.1//EN"
 "http://www.w3.org/Graphics/SVG/1.1/DTD/svg11.dtd">
<!-- Generated by graphviz version 2.43.0 (0)
 -->
<!-- Title: include/mcpp/util.h Pages: 1 -->
<svg width="306pt" height="137pt"
 viewBox="0.00 0.00 305.50 137.00" xmlns="http://www.w3.org/2000/svg" xmlns:xlink="http://www.w3.org/1999/xlink">
<g id="graph0" class="graph" transform="scale(1 1) rotate(0) translate(4 133)">
<title>include/mcpp/util.h</title>
<!-- Node1 -->
<g id="Node000001" class="node">
<title>Node1</title>
<g id="a_Node000001"><a xlink:title="Coordinate class.">
<polygon fill="#999999" stroke="#666666" points="190,-129 80,-129 80,-110 190,-110 190,-129"/>
<text text-anchor="middle" x="135" y="-117" font-family="Helvetica,sans-Serif" font-size="10.00">include/mcpp/util.h</text>
</a>
</g>
</g>
<!-- Node2 -->
<g id="Node000002" class="node">
<title>Node2</title>
<g id="a_Node000002"><a xlink:href="block_8h.html" target="_top" xlink:title="BlockType class.">
<polygon fill="white" stroke="#666666" points="52,-74 0,-74 0,-55 52,-55 52,-74"/>
<text text-anchor="middle" x="26" y="-62" font-family="Helvetica,sans-Serif" font-size="10.00">block.h</text>
</a>
</g>
</g>
<!-- Node1&#45;&gt;Node2 -->
<g id="edge1_Node000001_Node000002" class="edge">
<title>Node1&#45;&gt;Node2</title>
<g id="a_edge1_Node000001_Node000002"><a xlink:title=" ">
<path fill="none" stroke="#63b8ff" d="M117.49,-109.98C100.03,-101.5 72.99,-88.35 52.83,-78.54"/>
<polygon fill="#63b8ff" stroke="#63b8ff" points="54.36,-75.4 43.83,-74.17 51.29,-81.69 54.36,-75.4"/>
</a>
</g>
</g>
<!-- Node3 -->
<g id="Node000003" class="node">
<title>Node3</title>
<g id="a_Node000003"><a xlink:title=" ">
<polygon fill="#e0e0e0" stroke="#999999" points="81.5,-19 24.5,-19 24.5,0 81.5,0 81.5,-19"/>
<text text-anchor="middle" x="53" y="-7" font-family="Helvetica,sans-Serif" font-size="10.00">ostream</text>
</a>
</g>
</g>
<!-- Node1&#45;&gt;Node3 -->
<g id="edge5_Node000001_Node000003" class="edge">
<title>Node1&#45;&gt;Node3</title>
<g id="a_edge5_Node000001_Node000003"><a xlink:title=" ">
<path fill="none" stroke="#63b8ff" d="M127.95,-109.69C120.83,-100.76 109.54,-86.5 100,-74 88.08,-58.38 74.79,-40.36 65.39,-27.52"/>
<polygon fill="#63b8ff" stroke="#63b8ff" points="68.03,-25.2 59.31,-19.19 62.38,-29.33 68.03,-25.2"/>
</a>
</g>
</g>
<!-- Node4 -->
<g id="Node000004" class="node">
<title>Node4</title>
<g id="a_Node000004"><a xlink:title=" ">
<polygon fill="#e0e0e0" stroke="#999999" points="161.5,-74 108.5,-74 108.5,-55 161.5,-55 161.5,-74"/>
<text text-anchor="middle" x="135" y="-62" font-family="Helvetica,sans-Serif" font-size="10.00">cstddef</text>
</a>
</g>
</g>
<!-- Node1&#45;&gt;Node4 -->
<g id="edge3_Node000001_Node000004" class="edge">
<title>Node1&#45;&gt;Node4</title>
<g id="a_edge3_Node000001_Node000004"><a xlink:title=" ">
<path fill="none" stroke="#63b8ff" d="M135,-109.75C135,-102.8 135,-92.85 135,-84.13"/>
<polygon fill="#63b8ff" stroke="#63b8ff" points="138.5,-84.09 135,-74.09 131.5,-84.09 138.5,-84.09"/>
</a>
</g>
</g>
<!-- Node5 -->
<g id="Node000005" class="node">
<title>Node5</title>
<g id="a_Node000005"><a xlink:title=" ">
<polygon fill="#e0e0e0" stroke="#999999" points="232.5,-74 179.5,-74 179.5,-55 232.5,-55 232.5,-74"/>
<text text-anchor="middle" x="206" y="-62" font-family="Helvetica,sans-Serif" font-size="10.00">iterator</text>
</a>
</g>
</g>
<!-- Node1&#45;&gt;Node5 -->
<g id="edge4_Node000001_Node000005" class="edge">
<title>Node1&#45;&gt;Node5</title>
<g id="a_edge4_Node000001_Node000005"><a xlink:title=" ">
<path fill="none" stroke="#63b8ff" d="M146.41,-109.98C157.11,-102 173.34,-89.88 186.16,-80.31"/>
<polygon fill="#63b8ff" stroke="#63b8ff" points="188.47,-82.96 194.39,-74.17 184.28,-77.35 188.47,-82.96"/>
</a>
</g>
</g>
<!-- Node6 -->
<g id="Node000006" class="node">
<title>Node6</title>
<g id="a_Node000006"><a xlink:title=" ">
<polygon fill="#e0e0e0" stroke="#999999" points="297.5,-74 250.5,-74 250.5,-55 297.5,-55 297.5,-74"/>
<text text-anchor="middle" x="274" y="-62" font-family="Helvetica,sans-Serif" font-size="10.00">vector</text>
</a>
</g>
</g>
<!-- Node1&#45;&gt;Node6 -->
<g id="edge6_Node000001_Node000006" class="edge">
<title>Node1&#45;&gt;Node6</title>
<g id="a_edge6_Node000001_Node000006"><a xlink:title=" ">
<path fill="none" stroke="#63b8ff" d="M157.33,-109.98C180.2,-101.27 215.96,-87.63 241.86,-77.75"/>
<polygon fill="#63b8ff" stroke="#63b8ff" points="243.16,-81 251.26,-74.17 240.67,-74.46 243.16,-81"/>
</a>
</g>
</g>
<!-- Node2&#45;&gt;Node3 -->
<g id="edge2_Node000002_Node000003" class="edge">
<title>Node2&#45;&gt;Node3</title>
<g id="a_edge2_Node000002_Node000003"><a xlink:title=" ">
<path fill="none" stroke="#63b8ff" d="M30.46,-54.75C34.12,-47.57 39.41,-37.18 43.95,-28.27"/>
<polygon fill="#63b8ff" stroke="#63b8ff" points="47.2,-29.59 48.62,-19.09 40.97,-26.41 47.2,-29.59"/>
</a>
</g>
</g>
</g>
</svg>
